<svg xmlns="http://www.w3.org/2000/svg" xmlns:xlink="http://www.w3.org/1999/xlink" xmlns:inkscape="http://www.inkscape.org/namespaces/inkscape" version="1.1" width="555" height="459.45487" viewBox="0 0 555 459.45487">
<defs>
<clipPath id="clip_0">
<path d="M0 0H555V459.45487H0Z"/>
</clipPath>
<mask id="mask_1">
<g>
<clipPath id="clip_2">
<path transform="matrix(22.516179,0,0,22.516179,42.04349,392.89125)" d="M-1.867257-17.449286H22.781685V2.956257H-1.867257Z"/>
</clipPath>
<g clip-path="url(#clip_2)">
<path transform="matrix(22.516179,0,0,22.516179,42.04349,392.89125)" d="M1.401001-15.582029H19.513428V-1.07H1.401001Z" fill="#ffffff"/>
</g>
</g>
"/>
</mask>
<clipPath id="clip_3">
<path transform="matrix(22.516179,0,0,22.516179,42.04349,392.89125)" d="M-1.867257-17.449286H22.781685V2.956257H-1.867257Z"/>
</clipPath>
<mask id="mask_4">
<g>
<clipPath id="clip_5">
<path transform="matrix(22.516179,0,0,22.516179,42.04349,392.89125)" d="M-1.867257-17.449286H22.781685V2.956257H-1.867257Z"/>
</clipPath>
<g clip-path="url(#clip_5)">
<path transform="matrix(22.516179,0,0,22.516179,42.04349,392.89125)" d="M1.401001-15.582029H19.513428V-1.07H1.401001Z" fill="#ffffff"/>
</g>
</g>
"/>
</mask>
<clipPath id="clip_6">
<path transform="matrix(22.516179,0,0,22.516179,42.04349,392.89125)" d="M-1.867257-17.449286H22.781685V2.956257H-1.867257Z"/>
</clipPath>
<mask id="mask_7">
<g>
<clipPath id="clip_8">
<path transform="matrix(22.516179,0,0,22.516179,42.04349,392.89125)" d="M-1.867257-17.449286H22.781685V2.956257H-1.867257Z"/>
</clipPath>
<g clip-path="url(#clip_8)">
<path transform="matrix(22.516179,0,0,22.516179,42.04349,392.89125)" d="M4.498226-13.661396H16.416203V-2.990633H4.498226Z" fill="#ffffff"/>
</g>
</g>
"/>
</mask>
<clipPath id="clip_9">
<path transform="matrix(22.516179,0,0,22.516179,42.04349,392.89125)" d="M-1.867257-17.449286H22.781685V2.956257H-1.867257Z"/>
</clipPath>
<mask id="mask_10">
<g>
<clipPath id="clip_11">
<path transform="matrix(22.516179,0,0,22.516179,42.04349,392.89125)" d="M-1.867257-17.449286H22.781685V2.956257H-1.867257Z"/>
</clipPath>
<g clip-path="url(#clip_11)">
<path transform="matrix(22.516179,0,0,22.516179,42.04349,392.89125)" d="M4.498226-13.661396H16.416203V-2.990633H4.498226Z" fill="#ffffff"/>
</g>
</g>
"/>
</mask>
<clipPath id="clip_12">
<path transform="matrix(22.516179,0,0,22.516179,42.04349,392.89125)" d="M-1.867257-17.449286H22.781685V2.956257H-1.867257Z"/>
</clipPath>
<mask id="mask_13">
<g>
<clipPath id="clip_14">
<path transform="matrix(22.516179,0,0,22.516179,42.04349,392.89125)" d="M-1.867257-17.449286H22.781685V2.956257H-1.867257Z"/>
</clipPath>
<g clip-path="url(#clip_14)">
<path transform="matrix(22.516179,0,0,22.516179,42.04349,392.89125)" d="M4.498226-13.661396H16.416203V-2.990633H4.498226Z" fill="#ffffff"/>
</g>
</g>
"/>
</mask>
<clipPath id="clip_15">
<path transform="matrix(22.516179,0,0,22.516179,42.04349,392.89125)" d="M-1.867257-17.449286H22.781685V2.956257H-1.867257Z"/>
</clipPath>
</defs>
<g>
<g clip-path="url(#clip_0)">
<path transform="matrix(22.516179,0,0,22.516179,42.04349,392.89125)" d="M-1.867257-17.449286H22.781685V2.956257H-1.867257Z" fill="#e9ae3f"/>
<path transform="matrix(22.516179,0,0,22.516179,42.04349,392.89125)" d="M.8505 .8205V1.0755H.0915V.0105H.837V.2655H.384V.4155H.771V.6525H.384V.8205H.8505ZM1.207477 .0105 1.415977 .738 1.621477 .0105H1.928977L1.561477 1.0755H1.270477L.898477 .0105H1.207477ZM2.783973 .8205V1.0755H2.024973V.0105H2.770473V.2655H2.317473V.4155H2.704473V.6525H2.317473V.8205H2.783973ZM2.93545 1.0755V.0105H3.42445C3.47645 .0105 3.52445 .021 3.56845 .042 3.61245 .063 3.65045 .09125 3.68245 .12675 3.71445 .16225 3.7392 .202 3.7567 .246 3.7742 .29 3.78295 .3345 3.78295 .3795 3.78295 .4205 3.77695 .46 3.76495 .498 3.75295 .536 3.73545 .57075 3.71245 .60225 3.68945 .63375 3.66195 .661 3.62995 .684L3.85495 1.0755H3.53395L3.34645 .7485H3.22795V1.0755H2.93545ZM3.22795 .4935H3.41245C3.42445 .4935 3.43595 .489 3.44695 .48 3.45795 .471 3.4672 .458 3.4747 .441 3.4822 .424 3.48595 .4035 3.48595 .3795 3.48595 .3545 3.4817 .33375 3.4732 .31725 3.4647 .30075 3.4542 .288 3.4417 .279 3.4292 .27 3.41695 .2655 3.40495 .2655H3.22795V.4935ZM4.115852 .0105 4.306352 .4455 4.501352 .0105H4.819352L4.451852 .723V1.0755H4.160852V.72L3.799352 .0105H4.115852ZM6.016175 1.0755V.5145L5.837675 .909H5.681675L5.503175 .5145V1.0755H5.210675V.0105H5.530175L5.759675 .5115 5.990675 .0105H6.308675V1.0755H6.016175ZM6.752589 .0105H7.079589L7.418589 1.0755H7.121589L7.057089 .867H6.773589L6.710589 1.0755H6.412089L6.752589 .0105ZM7.010589 .672 6.916089 .297 6.817089 .672H7.010589ZM8.254074 .2655H7.948074V1.0755H7.655574V.2655H7.348074V.0105H8.254074V.2655ZM8.375517 1.0755V.0105H8.668017V.4155L8.992017 .0105H9.322017L8.935017 .4875 9.349017 1.0755H9.013017L8.749017 .684 8.668017 .768V1.0755H8.375517ZM9.671429 .0105H9.998429L10.337429 1.0755H10.040429L9.975929 .867H9.692429L9.629429 1.0755H9.330929L9.671429 .0105ZM9.929429 .672 9.834929 .297 9.735929 .672H9.929429ZM11.690337 .0105V1.0755H11.397837V.6585H11.040837V1.0755H10.748337V.0105H11.040837V.4035H11.397837V.0105H11.690337ZM12.134246 .0105H12.461246L12.800246 1.0755H12.503246L12.438746 .867H12.155246L12.092246 1.0755H11.793746L12.134246 .0105ZM12.392246 .672 12.297746 .297 12.198746 .672H12.392246ZM13.536649 .3585C13.536649 .3585 13.528149 .3535 13.511149 .3435 13.494149 .3335 13.471649 .32225 13.443649 .30975 13.415649 .29725 13.385149 .286 13.352149 .276 13.319149 .266 13.286649 .261 13.254649 .261 13.229649 .261 13.209149 .265 13.193149 .273 13.177149 .281 13.169149 .2945 13.169149 .3135 13.169149 .3315 13.177149 .346 13.193149 .357 13.209149 .368 13.231899 .378 13.261399 .387 13.290899 .396 13.326149 .407 13.367149 .42 13.433149 .44 13.490149 .463 13.538149 .489 13.586149 .515 13.623149 .54825 13.649149 .58875 13.675149 .62925 13.688149 .683 13.688149 .75 13.688149 .814 13.676649 .86775 13.653649 .91125 13.630649 .95475 13.599649 .9895 13.560649 1.0155 13.521649 1.0415 13.478149 1.06025 13.430149 1.07175 13.382149 1.08325 13.333149 1.089 13.283149 1.089 13.232149 1.089 13.178899 1.08375 13.123399 1.07325 13.067899 1.06275 13.014149 1.04825 12.962149 1.02975 12.910149 1.01125 12.862649 .9895 12.819649 .9645L12.945649 .708C12.945649 .708 12.955649 .714 12.975649 .726 12.995649 .738 13.022149 .7515 13.055149 .7665 13.088149 .7815 13.124899 .795 13.165399 .807 13.205899 .819 13.246649 .825 13.287649 .825 13.319649 .825 13.341899 .82075 13.354399 .81225 13.366899 .80375 13.373149 .7925 13.373149 .7785 13.373149 .7575 13.362149 .74125 13.340149 .72975 13.318149 .71825 13.289399 .70725 13.253899 .69675 13.218399 .68625 13.179149 .674 13.136149 .66 13.074149 .639 13.023149 .61525 12.983149 .58875 12.943149 .56225 12.913649 .53075 12.894649 .49425 12.875649 .45775 12.866149 .4135 12.866149 .3615 12.866149 .2825 12.884649 .2165 12.921649 .1635 12.958649 .1105 13.007399 .07025 13.067899 .04275 13.128399 .01525 13.193649 .0015 13.263649 .0015 13.315649 .0015 13.365899 .00775 13.414399 .02025 13.462899 .03275 13.508399 .048 13.550899 .066 13.593399 .084 13.630649 .101 13.662649 .117L13.536649 .3585ZM14.385483 .0105H14.712483L15.051483 1.0755H14.754483L14.689983 .867H14.406483L14.343483 1.0755H14.044983L14.385483 .0105ZM14.643483 .672 14.548983 .297 14.449983 .672H14.643483ZM16.107392 .3585C16.107392 .3585 16.09889 .3535 16.08189 .3435 16.064892 .3335 16.04239 .32225 16.01439 .30975 15.986391 .29725 15.955891 .286 15.922891 .276 15.889891 .266 15.857391 .261 15.825391 .261 15.800391 .261 15.779891 .265 15.763891 .273 15.747891 .281 15.739891 .2945 15.739891 .3135 15.739891 .3315 15.747891 .346 15.763891 .357 15.779891 .368 15.802641 .378 15.832141 .387 15.861641 .396 15.896891 .407 15.937891 .42 16.003891 .44 16.06089 .463 16.10889 .489 16.15689 .515 16.193892 .54825 16.21989 .58875 16.245892 .62925 16.25889 .683 16.25889 .75 16.25889 .814 16.24739 .86775 16.224392 .91125 16.201392 .95475 16.170392 .9895 16.131392 1.0155 16.09239 1.0415 16.048892 1.06025 16.00089 1.07175 15.952891 1.08325 15.903891 1.089 15.853891 1.089 15.802891 1.089 15.749641 1.08375 15.694141 1.07325 15.638641 1.06275 15.584891 1.04825 15.532891 1.02975 15.480891 1.01125 15.433391 .9895 15.390391 .9645L15.516391 .708C15.516391 .708 15.526391 .714 15.546391 .726 15.566391 .738 15.592891 .7515 15.625891 .7665 15.658891 .7815 15.695641 .795 15.736141 .807 15.776641 .819 15.817391 .825 15.858391 .825 15.890391 .825 15.912641 .82075 15.925141 .81225 15.937641 .80375 15.943891 .7925 15.943891 .7785 15.943891 .7575 15.932891 .74125 15.910891 .72975 15.888891 .71825 15.860141 .70725 15.824641 .69675 15.789141 .68625 15.749891 .674 15.706891 .66 15.644891 .639 15.593891 .61525 15.553891 .58875 15.513891 .56225 15.484391 .53075 15.465391 .49425 15.446391 .45775 15.436891 .4135 15.436891 .3615 15.436891 .2825 15.455391 .2165 15.492391 .1635 15.529391 .1105 15.578141 .07025 15.638641 .04275 15.699141 .01525 15.764391 .0015 15.834391 .0015 15.886391 .0015 15.936641 .00775 15.985141 .02025 16.033642 .03275 16.079142 .048 16.121642 .066 16.16414 .084 16.201392 .101 16.23339 .117L16.107392 .3585ZM17.232306 .2655H16.926306V1.0755H16.633807V.2655H16.326306V.0105H17.232306V.2655ZM17.817179 1.0845C17.73618 1.0845 17.66268 1.06925 17.59668 1.03875 17.53068 1.00825 17.473929 .96725 17.42643 .91575 17.37893 .86425 17.342429 .80625 17.316929 .74175 17.29143 .67725 17.278679 .6105 17.278679 .5415 17.278679 .4705 17.29218 .403 17.31918 .339 17.346179 .275 17.383929 .21775 17.432429 .16725 17.480929 .11675 17.53843 .077 17.604929 .048 17.671429 .019 17.744179 .0045 17.82318 .0045 17.904179 .0045 17.977679 .01975 18.043679 .05025 18.109679 .08075 18.16618 .122 18.213179 .174 18.26018 .226 18.296429 .28425 18.32193 .34875 18.34743 .41325 18.36018 .4795 18.36018 .5475 18.36018 .6175 18.34693 .6845 18.320429 .7485 18.293929 .8125 18.25643 .86975 18.20793 .92025 18.15943 .97075 18.102179 1.01075 18.036179 1.04025 17.970179 1.06975 17.897179 1.0845 17.817179 1.0845ZM17.57568 .5445C17.57568 .5805 17.580679 .61525 17.59068 .64875 17.60068 .68225 17.615679 .71225 17.63568 .73875 17.65568 .76525 17.68093 .78625 17.71143 .80175 17.741929 .81725 17.77818 .825 17.820179 .825 17.862179 .825 17.89868 .817 17.92968 .801 17.960679 .785 17.98593 .76325 18.005429 .73575 18.02493 .70825 18.039429 .67775 18.04893 .64425 18.05843 .61075 18.063179 .5765 18.063179 .5415 18.063179 .5055 18.05818 .471 18.04818 .438 18.03818 .405 18.023179 .37525 18.00318 .34875 17.98318 .32225 17.95768 .3015 17.92668 .2865 17.89568 .2715 17.859679 .264 17.81868 .264 17.776679 .264 17.740429 .272 17.709929 .288 17.679429 .304 17.654179 .32525 17.634179 .35175 17.61418 .37825 17.599429 .40825 17.58993 .44175 17.58043 .47525 17.57568 .5095 17.57568 .5445ZM18.499609 1.0755V.0105H18.98861C19.04061 .0105 19.08861 .021 19.132609 .042 19.176609 .063 19.21461 .09125 19.246609 .12675 19.278609 .16225 19.303359 .202 19.32086 .246 19.33836 .29 19.347109 .3345 19.347109 .3795 19.347109 .4205 19.341109 .46 19.32911 .498 19.317109 .536 19.299609 .57075 19.27661 .60225 19.253609 .63375 19.226109 .661 19.194109 .684L19.41911 1.0755H19.098109L18.910609 .7485H18.792109V1.0755H18.499609ZM18.792109 .4935H18.976609C18.98861 .4935 19.000109 .489 19.011109 .48 19.022109 .471 19.031359 .458 19.038859 .441 19.046359 .424 19.05011 .4035 19.05011 .3795 19.05011 .3545 19.045859 .33375 19.03736 .31725 19.028859 .30075 19.018359 .288 19.00586 .279 18.993359 .27 18.98111 .2655 18.969109 .2655H18.792109V.4935ZM19.680012 .0105 19.87051 .4455 20.065512 .0105H20.38351L20.01601 .723V1.0755H19.725012V.72L19.36351 .0105H19.680012ZM20.500428 .6255V0H20.785428V.6255H20.500428ZM20.500428 1.0755V.7995H20.785428V1.0755H20.500428Z" fill="#0e1425"/>
<g mask="url(#mask_1)">
<g>
<g clip-path="url(#clip_3)">
<g mask="url(#mask_4)">
<g>
<g clip-path="url(#clip_6)">
<path transform="matrix(22.516179,0,0,22.516179,42.04349,392.89125)" d="M10.457214-1.357148C15.458805-1.357148 19.513428-4.541489 19.513428-8.469588 19.513428-12.397688 15.458805-15.582029 10.457214-15.582029 5.455622-15.582029 1.401001-12.397688 1.401001-8.469588 1.401001-6.874635 2.069482-5.402315 3.19846-4.215907L1.838173-1.07 6.066055-2.247573C7.45319-1.652666 8.947909-1.349572 10.457214-1.357148Z" fill="#0e1425"/>
</g>
</g>
</g>
<g mask="url(#mask_7)">
<g>
<g clip-path="url(#clip_9)">
<path transform="matrix(22.516179,0,0,22.516179,42.04349,392.89125)" d="M12.417308-6.001579 12.449515-6.301104H15.193345C15.134152-6.966467 14.838667-7.588641 14.360393-8.054973 14.613821-8.532239 15.294595-10.014765 14.896236-11.526076 14.896236-11.526076 14.513778-13.583495 10.731275-13.643883 10.731275-13.643883 6.495257-14.067807 6.101527-10.739421 6.101527-10.739421 5.931434-8.941469 6.727348-7.930372 6.683466-7.881055 6.639383-7.829726 6.594294-7.775779 6.293288-8.008803 6.016764-8.271838 5.768991-8.560823 5.521217-8.849809 4.921747-8.651808 4.498427-8.379659 4.498427-8.379659 4.891754-8.198495 4.891754-7.865355 4.891754-7.542279 4.977707-5.449834 5.953174-5.302085 6.204992-4.632181 7.364442-2.574359 11.971846-3.23601 12.248123-3.296393 12.520717-3.372539 12.788292-3.464075 12.338401-4.025482 12.212995-4.878564 12.417308-6.001579ZM7.281912-8.47004C7.281912-8.47004 7.142617-8.357718 6.950381-8.165483 6.769217-8.589205 6.05986-10.466065 6.949174-11.88941 6.949174-11.88941 7.796216-13.30108 11.18499-13.139442 11.18499-13.139442 16.116677-13.058925 14.066504-8.299947 13.996002-8.350486 13.922827-8.397187 13.847296-8.439846 13.771765-8.482505 11.064013-6.654978 7.281912-8.47004Z" fill="#e9ae3f"/>
</g>
</g>
</g>
<g mask="url(#mask_10)">
<g>
<g clip-path="url(#clip_12)">
<path transform="matrix(22.516179,0,0,22.516179,42.04349,392.89125)" d="M11.117557-9.695514C11.142018-9.790531 11.154328-9.888267 11.154192-9.986383 11.154192-10.429228 10.916867-10.788134 10.62479-10.788134 10.332714-10.788134 10.095188-10.428825 10.095188-9.986383 10.095037-9.888412 10.107279-9.790815 10.131622-9.695916 7.810709-9.60473 7.483205-8.811433 7.483205-8.811433 7.483205-8.811433 8.098358-8.034844 10.579097-8.034844 13.059836-8.034844 13.736182-8.770772 13.736182-8.770772 13.564277-9.55642 11.662659-9.676592 11.117557-9.695514Z" fill="#e9ae3f"/>
</g>
</g>
</g>
<g mask="url(#mask_13)">
<g>
<g clip-path="url(#clip_15)">
<path transform="matrix(22.516179,0,0,22.516179,42.04349,392.89125)" d="M16.368294-5.962528H12.81768C12.23393-2.755925 14.619457-2.994659 14.619457-2.994659 16.87193-3.07417 16.368294-5.962528 16.368294-5.962528Z" fill="#e9ae3f"/>
</g>
</g>
</g>
</g>
</g>
</g>
</g>
</g>
</svg>
